
            <svg xmlns="http://www.w3.org/2000/svg">
                <filter id="grayscale">
                    <feColorMatrix type="saturate" values="0"/>
                </filter>
                <g filter="url(#grayscale)">
                    <svg xmlns="http://www.w3.org/2000/svg" viewBox="19.999999999999957 175.45234414520257 535.0047980920135 224.09531170959485"> <g transform="rotate(0 130.9778623818831 287.5)"><svg xmlns="http://www.w3.org/2000/svg" viewBox="156.39999389648438 147.42999267578125 687.199951171875 705.1400146484375" height="84.09531170959488" width="81.95572476376631" y="245.45234414520257" x="89.99999999999996" preserveAspectRatio="xMinYMin" style="overflow: visible;"><polygon id="Layer_1" dataName="Layer 1" class="cls-2" points="418.95 852.57 156.87 591.45 248.65 500 418.76 669.49 418.95 852.57" style="fill: #a99767; fill-opacity: 1;"></polygon><polygon id="Layer_1" dataName="Layer 1" class="cls-2" points="156.87 408.55 156.59 408.83 156.5 500 156.4 408.09 156.87 408.55" style="fill: #a99767; fill-opacity: 1;"></polygon><polygon id="Layer_1" dataName="Layer 1" class="cls-3" points="418.95 147.43 418.76 330.51 248.65 500 156.87 408.55 418.95 147.43" style="fill: #a99767; fill-opacity: 1;"></polygon><polygon id="Layer_1" dataName="Layer 1" class="cls-4" points="248.65 500 156.87 591.45 156.59 591.17 156.5 500 156.59 408.83 156.87 408.55 248.65 500" style="fill: #7d704c; fill-opacity: 1;"></polygon><polygon id="Layer_1" dataName="Layer 1" class="cls-3" points="156.87 591.45 156.4 591.91 156.5 500 156.59 591.17 156.87 591.45" style="fill: #a99767; fill-opacity: 1;"></polygon><polygon id="Layer_1" dataName="Layer 1" class="cls-2" points="843.13 591.45 581.05 852.57 581.24 669.49 751.35 500 843.13 591.45" style="fill: #a99767; fill-opacity: 1;"></polygon><polygon id="Layer_1" dataName="Layer 1" class="cls-2" points="843.6 408.09 843.5 500 843.41 408.83 843.13 408.55 843.6 408.09" style="fill: #a99767; fill-opacity: 1;"></polygon><polygon id="Layer_1" dataName="Layer 1" class="cls-3" points="843.13 408.55 751.35 500 581.24 330.51 581.05 147.43 843.13 408.55" style="fill: #a99767; fill-opacity: 1;"></polygon><polygon id="Layer_1" dataName="Layer 1" class="cls-4" points="843.5 500 843.41 591.17 843.13 591.45 751.35 500 843.13 408.55 843.41 408.83 843.5 500" style="fill: #7d704c; fill-opacity: 1;"></polygon><polygon id="Layer_1" dataName="Layer 1" class="cls-3" points="843.6 591.91 843.13 591.45 843.41 591.17 843.5 500 843.6 591.91" style="fill: #a99767; fill-opacity: 1;"></polygon></svg></g> <g transform="rotate(0 336.88979259884934 287.50070301467895)"><svg xmlns="http://www.w3.org/2000/svg" y="274.8857032435608" viewBox="2.990000009536743 9.109999656677246 296.2300109863281 25.229999542236328" x="188.77478710568525" height="25.229999542236328" width="296.2300109863281" style="overflow: visible;"><g fill="#032845" fill-opacity="1" style=""><path d="M7.73 9.70L16.15 28.10L24.20 9.70L27.92 9.70L29.27 33.83L25.55 33.83L24.57 13.09L24.42 13.09L15.24 33.83L14.73 33.83L5.72 13.92L5.58 13.92L4.59 33.83L2.99 33.83L4.34 9.70L7.73 9.70ZM44.91 24.68L44.91 33.83L41.37 33.83L41.37 24.86L33.13 9.70L37.11 9.70L43.85 23.55L50.16 9.70L51.98 9.70L44.91 24.68ZM76.22 34.26L76.22 34.26Q70.57 34.26 66.70 31.20Q62.84 28.14 62.84 22.42L62.84 22.42Q62.84 19.06 64.12 16.44Q65.39 13.81 67.47 12.32L67.47 12.32Q71.66 9.26 76.87 9.26L76.87 9.26Q79.90 9.26 83.18 10.35L83.18 10.35L82.82 12.83Q81.10 12.10 80.16 11.74L80.16 11.74Q77.42 10.75 74.65 10.75L74.65 10.75Q70.82 11.63 68.76 14.54Q66.70 17.46 66.70 21.83L66.70 21.83Q66.70 27.19 69.51 30.09Q72.32 32.99 76.91 32.99Q81.50 32.99 83.76 31.02L83.76 31.02L83.76 33.02Q80.63 34.26 76.22 34.26ZM99.11 9.26L99.11 9.26Q103.85 9.26 106.95 12.38Q110.04 15.49 110.04 21.03L110.04 21.03Q110.04 24.60 108.81 27.28Q107.57 29.96 105.56 31.42L105.56 31.42Q101.66 34.26 96.96 34.26Q92.26 34.26 89.18 31.11Q86.10 27.96 86.10 22.42L86.10 22.42Q86.10 19.54 86.92 17.22Q87.74 14.91 89.07 13.45Q90.40 11.99 92.15 11.01L92.15 11.01Q95.36 9.26 99.11 9.26ZM91.78 29.67Q92.73 31.27 94.33 32.17Q95.94 33.06 98.03 33.06Q100.13 33.06 101.77 32.00Q103.41 30.95 104.32 29.23L104.32 29.23Q106.18 25.81 106.18 21.87L106.18 21.87Q106.18 17.02 104.25 14.07L104.25 14.07Q102.10 10.75 97.14 10.75L97.14 10.75Q93.61 11.99 91.78 15.02Q89.96 18.04 89.96 21.87L89.96 21.87Q89.96 26.54 91.78 29.67L91.78 29.67ZM122.15 33.83L114.56 33.83L114.56 9.70L121.45 9.70Q125.75 9.70 129.22 11.52L129.22 11.52Q131.08 12.47 132.46 13.89Q133.85 15.31 134.69 17.51Q135.52 19.72 135.52 22.42L135.52 22.42Q135.52 26.28 133.59 28.94L133.59 28.94Q130.06 33.83 122.15 33.83L122.15 33.83ZM121.42 32.59L121.42 32.59Q126.05 32.59 128.85 29.85Q131.66 27.12 131.66 21.83L131.66 21.83Q131.66 17.75 129.44 14.85Q127.21 11.96 123.68 11.01L123.68 11.01Q120.51 11.01 118.14 11.77L118.14 11.77L118.14 32.26Q119.30 32.59 121.42 32.59ZM154.84 33.83L140.37 33.83L140.37 9.70L154.99 9.70L154.62 12.14L147.84 11.01Q146.06 11.01 143.91 11.63L143.91 11.63L143.91 20.49L152.00 20.49L152.00 21.87L143.91 21.87L143.91 32.51L155.21 31.38L154.84 33.83ZM181.09 34.26L181.09 34.26Q175.44 34.26 171.57 31.20Q167.71 28.14 167.71 22.42L167.71 22.42Q167.71 19.06 168.99 16.44Q170.26 13.81 172.34 12.32L172.34 12.32Q176.53 9.26 181.74 9.26L181.74 9.26Q184.77 9.26 188.05 10.35L188.05 10.35L187.68 12.83Q185.97 12.10 185.02 11.74L185.02 11.74Q182.29 10.75 179.52 10.75L179.52 10.75Q175.69 11.63 173.63 14.54Q171.57 17.46 171.57 21.83L171.57 21.83Q171.57 27.19 174.38 30.09Q177.19 32.99 181.78 32.99Q186.37 32.99 188.63 31.02L188.63 31.02L188.63 33.02Q185.50 34.26 181.09 34.26ZM192.06 33.83L190.09 33.83L200.92 9.11L201.46 9.11L212.29 33.83L208.32 33.83L205.58 27.27L194.76 27.27L192.06 33.83ZM200.19 14.07L195.30 25.88L205.00 25.88L200.19 14.07ZM222.31 22.31L219.51 22.31L219.51 33.83L215.93 33.83L215.93 9.70L223.81 9.70Q227.49 9.70 229.84 11.34Q232.19 12.98 232.19 15.66Q232.19 18.33 230.31 19.88Q228.44 21.43 225.23 22.02L225.23 22.02L235.00 33.83L230.77 34.34L222.31 22.31ZM219.51 11.66L219.51 21.21L221.84 21.21Q228.40 21.21 228.40 16.04L228.40 16.04Q228.40 15.16 227.96 14.07L227.96 14.07Q227.12 11.77 224.39 11.04L224.39 11.04Q221.91 11.04 219.51 11.66L219.51 11.66ZM253.66 33.83L239.19 33.83L239.19 9.70L253.81 9.70L253.44 12.14L246.66 11.01Q244.88 11.01 242.73 11.63L242.73 11.63L242.73 20.49L250.82 20.49L250.82 21.87L242.73 21.87L242.73 32.51L254.02 31.38L253.66 33.83ZM274.15 33.83L259.67 33.83L259.67 9.70L274.29 9.70L273.93 12.14L267.15 11.01Q265.36 11.01 263.21 11.63L263.21 11.63L263.21 20.49L271.30 20.49L271.30 21.87L263.21 21.87L263.21 32.51L274.51 31.38L274.15 33.83ZM286.54 22.31L283.73 22.31L283.73 33.83L280.16 33.83L280.16 9.70L288.03 9.70Q291.71 9.70 294.07 11.34Q296.42 12.98 296.42 15.66Q296.42 18.33 294.54 19.88Q292.66 21.43 289.45 22.02L289.45 22.02L299.22 33.83L295.00 34.34L286.54 22.31ZM283.73 11.66L283.73 21.21L286.07 21.21Q292.63 21.21 292.63 16.04L292.63 16.04Q292.63 15.16 292.19 14.07L292.19 14.07Q291.35 11.77 288.62 11.04L288.62 11.04Q286.14 11.04 283.73 11.66L283.73 11.66Z" transform="translate(0, 0)"></path></g></svg></g></svg>
                </g>
            </svg>
        